<?xml version="1.0" encoding="utf-8"?>

<!DOCTYPE svg PUBLIC "-//W3C//DTD SVG 1.1//EN" "http://www.w3.org/Graphics/SVG/1.1/DTD/svg11.dtd">
<svg version="1.1" id="Layer_1" xmlns="http://www.w3.org/2000/svg" xmlns:xlink="http://www.w3.org/1999/xlink" x="0px" y="0px"
	 width="141px" height="30px" viewBox="0 0 141 30" enable-background="new 0 0 141 30" xml:space="preserve">
<g>
	<g>
		<g>
			<path fill="#C8C8C8" d="M83.1,18.8h6.8v3.7c-0.9,0.7-2,1.3-3.2,1.8C85.4,24.8,84.2,25,83,25c-2.5,0-4.5-0.9-6.1-2.6
				c-1.5-1.7-2.3-4.3-2.3-7.7c0-3.2,0.8-5.6,2.3-7.2C78.4,5.8,80.5,5,83,5c1.7,0,3.1,0.4,4.3,1.2c1.1,0.8,1.9,1.9,2.3,3.4l5.9-1.1
				c-0.6-2.7-1.9-4.8-3.9-6.3C89.5,0.8,86.7,0,83,0c-2.8,0-5.1,0.5-7,1.4c-2.5,1.3-4.3,3.1-5.6,5.4c-1.3,2.3-1.9,5-1.9,8.1
				c0,2.8,0.6,5.4,1.7,7.7c1.1,2.4,2.8,4.2,5.1,5.5c2.3,1.3,4.9,1.9,8,1.9c2.4,0,4.8-0.5,7.1-1.4c2.3-0.9,4.1-1.9,5.4-3.1V14H83.1
				V18.8z M108.8,8c-2.1,0-3.9,0.5-5.6,1.4c-1.7,0.9-3,2.2-3.9,4c-0.9,1.7-1.4,3.5-1.4,5.4c0,2.4,0.5,4.5,1.4,6.1
				c0.9,1.7,2.3,3,4,3.8c1.8,0.9,3.6,1.3,5.5,1.3c3.1,0,5.7-1,7.8-3.1c2.1-2.1,3.1-4.7,3.1-7.9c0-3.2-1-5.8-3.1-7.8
				C114.6,9,112,8,108.8,8z M112.5,23.8c-1,1.1-2.2,1.7-3.7,1.7c-1.5,0-2.7-0.6-3.7-1.7c-1-1.1-1.5-2.7-1.5-4.8
				c0-2.1,0.5-3.7,1.5-4.8c1-1.1,2.2-1.7,3.7-1.7c1.5,0,2.7,0.6,3.7,1.7c1,1.1,1.5,2.7,1.5,4.7C114,21.1,113.5,22.7,112.5,23.8z
				 M134.8,8.5l-4,10.7c-0.2,0.6-0.4,1.2-0.6,1.8c-0.1,0.3-0.3,0.9-0.6,1.8l-1.2-3.6l-4-10.7h-5.9l8.5,21h5l8.4-21H134.8z"/>
		</g>
	</g>
	<path fill="#EF2D27" d="M16.6,29.5V17.3L27.3,0.5h-6.8L13.8,12L6.9,0.5H0l10.7,16.8v12.2H16.6z"/>
	<path fill="#EF2D27" d="M23.3,24.8c0.9,1.7,2.3,3,4,3.8c1.8,0.9,3.6,1.3,5.5,1.3c3.1,0,5.7-1,7.8-3.1c2.1-2.1,3.1-4.7,3.1-7.9
		c0-3.2-1-5.8-3.1-7.8C38.7,9,36.1,8,32.9,8c-2.1,0-3.9,0.5-5.6,1.4c-1.7,0.9-3,2.2-3.9,4c-0.9,1.7-1.4,3.5-1.4,5.4
		C22,21.1,22.4,23.2,23.3,24.8z M29.2,14.2c1-1.1,2.2-1.7,3.7-1.7c1.5,0,2.7,0.6,3.7,1.7c1,1.1,1.5,2.7,1.5,4.7
		c0,2.1-0.5,3.7-1.5,4.8c-1,1.1-2.2,1.7-3.7,1.7c-1.5,0-2.7-0.6-3.7-1.7c-1-1.1-1.5-2.7-1.5-4.8C27.7,16.9,28.2,15.3,29.2,14.2z"/>
	<path fill="#EF2D27" d="M65.3,29.5v-21h-5.6v8.9c0,3-0.1,4.9-0.4,5.7c-0.3,0.8-0.8,1.4-1.6,1.9c-0.8,0.5-1.6,0.8-2.6,0.8
		c-0.8,0-1.5-0.2-2.1-0.6c-0.5-0.4-0.9-0.9-1.1-1.6c-0.2-0.7-0.3-2.5-0.3-5.4V8.5H46v13.3c0,2,0.3,3.5,0.8,4.7
		c0.5,1.1,1.3,2,2.4,2.6c1.1,0.6,2.4,0.9,3.8,0.9c1.4,0,2.7-0.3,4-1c1.3-0.6,2.3-1.5,3-2.7v3.1H65.3z"/>
</g>
</svg>
