<svg xmlns="http://www.w3.org/2000/svg" xmlns:xlink="http://www.w3.org/1999/xlink" version="1.1" x="0px" y="0px" viewBox="0 0 100 125" enable-background="new 0 0 100 100" xml:space="preserve"><path fill="#FFFFFF" d="M84.873,15.127C78.122,8.376,69.273,5,60.425,5c-8.849,0-17.697,3.376-24.448,10.127  c-12.589,12.589-13.435,32.467-2.55,46.043l-3.79,3.79c-2.007-0.324-4.134,0.271-5.68,1.819L6.919,83.817  c-2.559,2.558-2.559,6.706,0,9.264C8.198,94.36,9.875,95,11.551,95s3.353-0.64,4.632-1.919l17.038-17.038  c1.547-1.546,2.142-3.672,1.819-5.678l3.791-3.791c6.295,5.048,13.943,7.577,21.594,7.577c8.849,0,17.697-3.376,24.448-10.127  C98.376,50.521,98.376,28.63,84.873,15.127z M79.469,58.62c-5.087,5.087-11.85,7.888-19.044,7.888s-13.957-2.801-19.044-7.888  c-5.087-5.087-7.888-11.85-7.888-19.044c0-7.194,2.801-13.957,7.888-19.044c5.087-5.087,11.85-7.888,19.044-7.888  s13.957,2.801,19.044,7.888c5.087,5.087,7.888,11.85,7.888,19.044C87.357,46.769,84.556,53.533,79.469,58.62z"/></svg>
